<svg xmlns="http://www.w3.org/2000/svg" width="128" height="128" viewBox="0 0 64 64" fill="none" role="img" aria-labelledby="title">
  <title id="title">Food Recipe cooking pot logo</title>
  <g fill="#F97316">
    <path d="M27 14a5 5 0 0 1 10 0v2h-3v-2a2 2 0 0 0-4 0v2h-3z"/>
    <path d="M12 27c2-7 10-12 20-12s18 5 20 12H12z"/>
    <rect x="8" y="28" width="48" height="4" rx="2"/>
    <path d="M14 35h36l-2 14a8 8 0 0 1-8 7H24a8 8 0 0 1-8-7l-2-14z"/>
    <path d="M13 36H7a3 3 0 0 0 0 6h7l-.8-3H7v-1h6.4L13 36zM51 36h6a3 3 0 0 1 0 6h-7l.8-3H57v-1h-6.4L51 36z"/>
  </g>
  <path d="M21 23c3-2 7-3 11-3" stroke="#FFF7ED" stroke-width="2" stroke-linecap="round"/>
</svg>
